<?xml version="1.0" encoding="UTF-8"?>
<svg viewBox="0 0 135.55 135.51" xmlns="http://www.w3.org/2000/svg">
 <defs>
  <radialGradient id="a" cx="44.447" cy="46.329" r="84.731" gradientUnits="userSpaceOnUse">
   <stop stop-color="#ffc154" offset="0"/>
   <stop stop-color="#f29b00" offset="1"/>
  </radialGradient>
 </defs>
 <path d="m135.55 67.732c0 34.533-27.088 64.336-61.504 67.5-34.428 3.165-66.644-21.045-72.942-55.092-6.297-34.04 14.95-68.33 48.31-77.686 33.372-9.357 69.43 8.813 81.738 41.207 2.915 7.673 4.398 15.864 4.398 24.071" fill="#d05800"/>
 <path d="m130.76 67.732c0 34.33-28.665 62.995-62.995 62.995-34.331 0-62.995-28.665-62.995-62.995 0-34.331 28.664-62.995 62.995-62.995 34.33 0 62.995 28.664 62.995 62.995" fill="url(#a)"/>
 <g fill="#fff">
  <path d="m67.438 18.5c-11.62 0.086491-22.907 5.257-25.844 12.5-1.0717 2.643-1.4541 5.7029-0.90625 7.9688 0.54788 2.2659 1.6172 3.7517 4.375 4.5312 2.1544 0.60902 3.7318 0.30264 5.5-0.53125s3.6062-2.3171 5.5625-3.9688c1.9563-1.6516 4.0081-3.4524 6.5312-4.7188 2.5232-1.2664 5.7148-1.8671 8.9688-0.78125 2.3205 0.77435 4.1807 2.1956 5.0938 4.0938 0.91302 1.8981 0.83186 3.9523 0.34375 5.6875-0.97623 3.4703-3.3349 6.3175-5.625 8.25-2.9762 2.5115-6.5815 4.8272-8.6875 8.9688s-3.0181 10.306 0.8125 21.094c0.78018 2.197 1.5427 3.6804 2.125 4.5 0.58234 0.81963 0.89022 0.87711 0.75 0.84375-0.14022-0.033363-0.32729 0.078087 0-0.15625s0.9164-0.84995 1.5312-1.75c1.2297-1.8001 2.5738-4.6041 3.7812-7.375 1.2075-2.7709 2.2878-5.4844 3.375-7.4688 3.4919-6.3733 10.13-13.31 14.781-18.031 1.1532-1.1703 2.819-2.9232 3.8438-5.875s1.4412-7.1392-0.5625-13.375c-1.5966-4.9689-5.0043-8.4692-9.5938-10.875s-10.346-3.5745-16.156-3.5312z"/>
  <path d="m77.983 105.85c0-13.241-20.532-13.238-20.532 0 0 13.241 20.532 13.243 20.532 0"/>
 </g>
</svg>
